<svg width="112" height="19" viewBox="0 0 112 19" fill="none" xmlns="http://www.w3.org/2000/svg">
<path fill-rule="evenodd" clip-rule="evenodd" d="M54.2659 18.5333C50.647 18.5333 48.5634 16.4771 48.5634 12.9678V6.96369H46.0411V3.3996H46.1782C47.7135 3.3996 48.5634 2.63195 48.5634 1.09664V0H52.6758V3.3996H56.185V6.96369H52.6758V12.6937C52.6758 14.229 53.4983 14.9692 55.2255 14.9692C55.4722 14.9692 55.8012 14.9418 56.185 14.8869V18.3688C55.6367 18.451 54.8965 18.5333 54.2659 18.5333ZM12.4554 1.26832C12.1057 0.610489 11.4265 0.240483 10.7293 0.253498C10.0334 0.241786 9.35593 0.611653 9.00675 1.26838L5.47477 7.91108C6.26967 9.01661 7.39806 9.74857 8.63745 10.1115L10.7311 6.17385L16.9462 17.8627C17.4421 18.7953 18.6002 19.1495 19.533 18.6535C20.4657 18.1576 20.8198 16.9994 20.3239 16.0667L12.4554 1.26832ZM6.33392 14.4437C5.14049 13.9862 4.02345 13.3279 3.05078 12.4699L1.13831 16.0667C0.642366 16.9995 0.996454 18.1576 1.92919 18.6537C2.86191 19.1496 4.02008 18.7955 4.51603 17.8627L6.33392 14.4437ZM3.81941 4.66771C4.22575 9.70298 8.80533 11.6615 12.5166 10.6179L14.3574 14.0799C8.42919 16.1676 0.662215 13.1032 0.006299 4.97544C-0.0786758 3.92248 0.706031 3 1.75899 2.91502C2.81195 2.83006 3.73443 3.61476 3.81941 4.66771ZM21.0932 4.96869C20.883 7.69334 19.8873 9.84414 18.4334 11.4243L16.414 7.62618C16.8823 6.79858 17.191 5.81438 17.279 4.67446C17.3603 3.62121 18.28 2.83324 19.3332 2.9145C20.3865 2.99574 21.1744 3.91544 21.0932 4.96869ZM31.895 18.6978C28.6599 18.6978 26.6585 17.0802 26.6585 14.366C26.6585 11.8437 28.3857 10.1439 31.9773 9.56817L36.1171 8.91018V8.49894C36.1171 7.37488 35.1575 6.49757 33.6222 6.49757C32.1418 6.49757 30.9629 7.37488 30.4694 8.69086L27.1794 7.12814C28.0568 4.63327 30.6339 3.07055 33.8141 3.07055C37.5976 3.07055 40.2295 5.29126 40.2295 8.49894V18.3688H36.3912V16.9706C35.2124 18.1495 33.7867 18.6978 31.895 18.6978ZM30.908 14.229C30.908 15.1611 31.6757 15.682 32.7175 15.682C34.7463 15.682 36.1171 14.229 36.1171 12.392V11.926L32.7175 12.5291C31.5386 12.7484 30.908 13.242 30.908 14.229ZM44.7022 18.7513C46.0754 18.7513 47.1887 17.638 47.1887 16.2648C47.1887 14.8914 46.0754 13.7782 44.7022 13.7782C43.3288 13.7782 42.2156 14.8914 42.2156 16.2648C42.2156 17.638 43.3288 18.7513 44.7022 18.7513ZM56.88 10.8567C56.88 15.1885 59.9506 18.6978 64.6936 18.6978C67.7642 18.6978 70.2317 17.2447 71.1364 15.0514L67.8465 13.4887C67.2707 14.5031 66.2015 15.1337 64.7484 15.1337C62.7196 15.1337 61.4037 13.9274 61.1569 12.0356H71.6299C71.767 11.6244 71.8218 11.0486 71.8218 10.4455C71.8218 6.30565 69.1624 3.07055 64.4194 3.07055C60.1425 3.07055 56.88 6.3879 56.88 10.8567ZM61.2392 9.01985C61.623 7.29263 62.8019 6.36049 64.4194 6.36049C66.1192 6.36049 67.2981 7.42971 67.4626 9.01985H61.2392ZM78.0561 18.6978C74.821 18.6978 72.8196 17.0802 72.8196 14.366C72.8196 11.8437 74.5468 10.1439 78.1383 9.56817L82.2782 8.91018V8.49894C82.2782 7.37488 81.3186 6.49757 79.7833 6.49757C78.3028 6.49757 77.1239 7.37488 76.6304 8.69086L73.3405 7.12814C74.2178 4.63327 76.7949 3.07055 79.9752 3.07055C83.7586 3.07055 86.3906 5.29126 86.3906 8.49894V18.3688H82.5523V16.9706C81.3734 18.1495 79.9478 18.6978 78.0561 18.6978ZM77.0691 14.229C77.0691 15.1611 77.8367 15.682 78.8786 15.682C80.9073 15.682 82.2782 14.229 82.2782 12.392V11.926L78.8786 12.5291C77.6997 12.7484 77.0691 13.242 77.0691 14.229ZM88.3767 3.39575V18.365H92.4891V9.6192C92.4891 7.89199 93.476 6.76793 95.0936 6.76793C96.7111 6.76793 97.6981 7.89199 97.6981 9.6192V18.365H101.811V9.6192C101.811 7.89199 102.798 6.76793 104.415 6.76793C106.033 6.76793 107.02 7.89199 107.02 9.6192V18.365H111.132V8.74189C111.132 5.34229 108.829 3.06675 105.594 3.06675C103.647 3.06675 102.03 3.80699 100.961 5.36971C100.111 3.94407 98.3835 3.06675 96.4096 3.06675C94.5179 3.06675 92.9826 3.75216 92.2149 5.23263V3.39575H88.3767Z" fill="url(#paint0_linear_10879_97)"/>
<defs>
<linearGradient id="paint0_linear_10879_97" x1="57.6376" y1="-8.54362" x2="62.9933" y2="25.3758" gradientUnits="userSpaceOnUse">
<stop stop-color="#A54CFF"/>
<stop offset="1" stop-color="#7000E3"/>
</linearGradient>
</defs>
</svg>
