<svg id="Layer_2" data-name="Layer 2" xmlns="http://www.w3.org/2000/svg" viewBox="0 0 5869.41 1260.27" class="header__logo"> <defs><style>
.cls-1 {
fill: #000;
}
.cls-1,
.cls-2,
.cls-3,
.cls-4 {
stroke-width: 0;
}
.cls-2 {
fill: #fdeb01;
}
.cls-3 {
fill: #000;
}
.cls-4 {
fill: #010101;
}
</style></defs> <g id="Layer_1-2" data-name="Layer 1"> <g> <path class="cls-4" d="m5862.51,819.36c0,55.32-39.72,100.59-88.22,100.59H95.14c-48.52,0-88.21-45.27-88.21-100.59V107.53C6.93,52.19,46.62,6.94,95.14,6.94h5679.14c48.5,0,88.22,45.25,88.22,100.58v711.84Z"></path> <path class="cls-2" d="m5774.29,0H95.12C42.67,0,0,48.24,0,107.51v711.87c0,59.27,42.67,107.51,95.12,107.51h5679.17c52.45,0,95.12-48.24,95.12-107.51V107.51c0-59.27-42.67-107.51-95.12-107.51Zm81.31,819.38c0,51.65-36.48,93.64-81.31,93.64H95.12c-44.78,0-81.26-41.99-81.26-93.64V107.51C13.86,55.86,50.34,13.86,95.12,13.86h5679.17c44.83,0,81.31,41.99,81.31,93.64v711.87Z"></path> <g> <path class="cls-2" d="m5662.86,182.4c-3.58-6.19-8.47-11.08-14.66-14.6-6.19-3.58-12.84-5.34-19.94-5.34s-13.81,1.82-20,5.4c-6.19,3.58-11.08,8.47-14.6,14.66-3.58,6.19-5.34,12.84-5.34,19.89s1.76,13.58,5.17,19.72c3.47,6.14,8.3,11.02,14.49,14.72,6.19,3.64,12.96,5.46,20.29,5.46s14.15-1.82,20.34-5.51c6.19-3.69,11.02-8.58,14.49-14.72,3.41-6.14,5.11-12.67,5.11-19.66s-1.76-13.81-5.34-20Zm-6.53,36.2c-2.84,5-6.82,8.98-11.82,11.88-5,2.9-10.46,4.38-16.25,4.38s-11.14-1.48-16.14-4.38c-5.06-2.84-8.98-6.82-11.88-11.82-2.95-5-4.38-10.4-4.38-16.25s1.42-11.08,4.32-16.14c2.9-5,6.82-8.98,11.88-11.88,5-2.9,10.4-4.38,16.19-4.38s11.14,1.42,16.14,4.32c5.06,2.9,9.03,6.88,11.93,11.88,2.9,5,4.32,10.4,4.32,16.19s-1.42,11.14-4.32,16.19Z"></path> <path class="cls-2" d="m5635.65,205.02c4.26-1.88,6.42-5.4,6.42-10.51,0-4.26-1.31-7.44-3.81-9.55-2.56-2.1-6.53-3.18-11.93-3.18h-11.88v41.25h10.28v-15.23h2.1l5.63,15.23h11.42l-8.24-18.01Zm-5.28-4.83c-.91.91-2.44,1.36-4.55,1.36h-1.48v-11.65h1.36c2.22,0,3.81.4,4.72,1.31.91.85,1.31,2.33,1.31,4.43s-.45,3.64-1.36,4.55Z"></path> <path class="cls-2" d="m3122.73,724.31l-49.04-83.64c18.81-42.96,30.85-91.48,37.79-152.51l.17-1.25c.17-1.42-.8-2.67-2.16-2.9l-82.68-14.94c-.68-.17-1.42,0-1.99.45-.62.4-.97,1.02-1.08,1.76l-2.05,14.15c-3.3,23.52-5.85,41.48-8.64,56.03l-46.94-89.38c57.56-49.83,83.24-99.55,83.24-161.03v-5.91c0-79.84-49.83-133.42-124.04-133.42-36.25,0-69.04,14.09-92.39,39.61-22.62,24.66-35,58.3-35,94.67v5.91c0,45.17,19.55,86.6,49.04,134.56-62.16,54.66-89.89,109.04-89.89,176.15v5.11c0,94.04,63.19,164.9,147,164.9,46.31,0,78.36-13.75,109.84-47.39l26.93,49.09c.34.68.97,1.14,1.65,1.31.23.06.45.11.68.11.45,0,.97-.17,1.36-.4l77.28-47.45c1.25-.74,1.65-2.33.91-3.58Zm-228.26-440.88c0-24.09,11.71-40.29,29.21-40.29s29.15,17.56,29.15,43.7v6.76c0,31.71-10.63,58.92-31.54,80.97-19.04-37.16-26.82-61.31-26.82-82.68v-8.47Zm22.39,390.94c-31.71,0-52.22-28.47-52.22-72.62v-6.76c0-27.9,11.54-60.17,30.23-85.35l70.86,140.12c-14.26,16.76-29.83,24.6-48.87,24.6Z"></path> <g> <path class="cls-2" d="m586.8,160.23c-1.14,0-2.15.73-2.51,1.81l-69.71,207.53-69.41-206.61-.31-.92c-.36-1.08-1.37-1.8-2.51-1.8h-105.33c-1.46,0-2.65,1.19-2.65,2.65v598.58c0,1.46,1.19,2.65,2.65,2.65h102.31c1.46,0,2.65-1.19,2.65-2.65v-336.91l68.26,203.26c.36,1.08,1.37,1.81,2.51,1.81h3.65c1.14,0,2.15-.73,2.51-1.81l68.27-203.26v336.91c0,1.46,1.19,2.65,2.65,2.65h102.31c1.46,0,2.65-1.19,2.65-2.65V162.88c0-1.46-1.19-2.65-2.65-2.65h-105.34Z"></path> <path class="cls-2" d="m921.49,151.72c-103.19,0-162.34,107.56-162.34,295.14v30.63c0,187.57,59.15,295.14,162.34,295.14s162.34-107.56,162.34-295.14v-30.63c0-187.57-59.21-295.14-162.34-295.14Zm48.75,325.76c0,130.86-15.51,191.78-48.75,191.78s-48.75-60.91-48.75-191.78v-30.63c0-130.86,15.46-191.78,48.75-191.78s48.75,60.91,48.75,191.78v30.63Z"></path> <path class="cls-2" d="m1457.89,760.62l-79.72-240.81c45.23-35.63,69.15-90.23,69.15-158.08v-7.67c0-64.89-17.96-114.67-53.3-147.97-32.33-30.46-77.62-45.86-134.61-45.86h-108.59c-1.48,0-2.67,1.19-2.67,2.61v598.62c0,1.42,1.19,2.61,2.67,2.61h106.54c1.48,0,2.67-1.19,2.67-2.61v-205.07h12.67l66.31,204.96.34.91c.34,1.08,1.36,1.82,2.5,1.82h113.53c.85,0,1.65-.4,2.16-1.08.51-.68.63-1.59.34-2.39Zm-122.45-398.04c0,60.29-25.68,92.17-74.32,92.17h-1.08v-189.45c51.42.51,75.4,29.32,75.4,90.46v6.82Z"></path> <path class="cls-2" d="m2076.35,161.77l-.23-1.08c-.23-1.25-1.31-2.16-2.61-2.16h-112.91c-1.25,0-2.39.91-2.61,2.16l-113.7,600.27c-.17.8.06,1.59.57,2.16.51.62,1.25.97,2.05.97h103.25c1.31,0,2.39-.91,2.61-2.22l18.35-116.09h87.68l19.21,116.09c.23,1.31,1.31,2.22,2.61,2.22h106.66c.74,0,1.53-.34,1.99-.97.51-.57.74-1.36.57-2.16l-113.47-599.19Zm-88.64,382.36l27.62-167.63,26.82,167.63h-54.44Z"></path> <path class="cls-2" d="m2438.78,160.23c-1.46,0-2.65,1.19-2.65,2.65v278.95l-97.23-279.82c-.37-1.07-1.37-1.78-2.5-1.78h-99.36c-1.46,0-2.65,1.19-2.65,2.65v598.58c0,1.46,1.18,2.65,2.65,2.65h104.01c1.46,0,2.65-1.19,2.65-2.65v-293.43l102.33,294.3c.37,1.06,1.37,1.78,2.5,1.78h94.26c1.46,0,2.65-1.19,2.65-2.65V162.88c0-1.46-1.18-2.65-2.65-2.65h-104.01Z"></path> <path class="cls-2" d="m1802.52,417.98h-148.04c-1.46,0-2.65,1.19-2.65,2.65v94.37c0,1.46,1.18,2.65,2.65,2.65h49.29v150.07c-3.08.48-4.05.48-6.88.48-57.17,0-87.39-66.45-87.39-192.15v-29.44c0-63.03,8.85-111.28,26.3-143.43,16.31-30.03,39.77-45.26,69.75-45.26,27.42,0,50.09,10.23,75.69,25.59.82.49,1.84.51,2.67.03.83-.47,1.34-1.35,1.34-2.3v-109.95c0-1.02-.58-1.95-1.5-2.39-24.31-11.66-51.78-17.57-81.66-17.57-61.22,0-112.48,26.35-148.25,76.21-37.28,51.97-56.99,129.22-56.99,223.4v20.78c0,100.13,19.32,177.27,57.44,229.26,33.73,46.02,81.55,70.34,138.28,70.34,41.94,0,73.57-10.02,111-26.19.97-.42,1.6-1.37,1.6-2.43v-322.07c0-1.46-1.18-2.65-2.65-2.65Z"></path> </g> <g> <path class="cls-2" d="m3576.43,160.23c-1.14,0-2.15.73-2.51,1.81l-69.71,207.53-69.41-206.61-.31-.92c-.36-1.08-1.37-1.8-2.51-1.8h-105.33c-1.46,0-2.65,1.19-2.65,2.65v598.58c0,1.46,1.19,2.65,2.65,2.65h102.31c1.46,0,2.65-1.19,2.65-2.65v-336.91l68.26,203.26c.36,1.08,1.37,1.81,2.51,1.81h3.65c1.14,0,2.15-.73,2.51-1.81l68.27-203.26v336.91c0,1.46,1.19,2.65,2.65,2.65h102.31c1.46,0,2.65-1.19,2.65-2.65V162.88c0-1.46-1.19-2.65-2.65-2.65h-105.34Z"></path> <path class="cls-2" d="m3911.09,151.72c-103.13,0-162.28,107.56-162.28,295.14v30.63c0,187.57,59.15,295.14,162.28,295.14s162.34-107.56,162.34-295.14v-30.63c0-187.57-59.15-295.14-162.34-295.14Zm48.81,325.76c0,130.86-15.51,191.78-48.81,191.78s-48.75-60.91-48.75-191.78v-30.63c0-130.86,15.51-191.78,48.75-191.78s48.81,60.91,48.81,191.78v30.63Z"></path> <path class="cls-2" d="m4447.55,760.62l-79.72-240.81c45.23-35.63,69.1-90.23,69.1-158.08v-7.67c0-64.89-17.9-114.67-53.24-147.97-32.39-30.46-77.68-45.86-134.61-45.86h-108.59c-1.48,0-2.67,1.19-2.67,2.61v598.62c0,1.42,1.19,2.61,2.67,2.61h106.54c1.48,0,2.67-1.19,2.67-2.61v-205.07h12.61l66.37,204.96.28.91c.4,1.08,1.42,1.82,2.56,1.82h113.53c.85,0,1.65-.4,2.16-1.08.45-.68.62-1.59.34-2.39Zm-122.45-398.04c0,60.29-25.74,92.17-74.32,92.17h-1.08v-189.45c51.42.51,75.4,29.32,75.4,90.46v6.82Z"></path> <path class="cls-2" d="m5065.94,161.77l-.17-1.08c-.28-1.25-1.36-2.16-2.61-2.16h-112.91c-1.31,0-2.39.91-2.61,2.16l-113.76,600.27c-.11.8.06,1.59.57,2.16.51.62,1.25.97,2.05.97h103.25c1.31,0,2.44-.91,2.61-2.22l18.41-116.09h87.62l19.26,116.09c.17,1.31,1.31,2.22,2.61,2.22h106.6c.8,0,1.53-.34,2.05-.97.51-.57.74-1.36.57-2.16l-113.53-599.19Zm-88.59,382.36l27.56-167.63,26.88,167.63h-54.44Z"></path> <path class="cls-2" d="m5428.41,160.23c-1.46,0-2.65,1.19-2.65,2.65v278.95l-97.23-279.82c-.37-1.07-1.37-1.78-2.5-1.78h-99.36c-1.46,0-2.65,1.19-2.65,2.65v598.58c0,1.46,1.18,2.65,2.65,2.65h104.01c1.46,0,2.65-1.19,2.65-2.65v-293.43l102.33,294.3c.37,1.06,1.37,1.78,2.5,1.78h94.26c1.46,0,2.65-1.19,2.65-2.65V162.88c0-1.46-1.18-2.65-2.65-2.65h-104.01Z"></path> <path class="cls-2" d="m4792.16,417.98h-148.04c-1.46,0-2.65,1.19-2.65,2.65v94.37c0,1.46,1.18,2.65,2.65,2.65h49.29v150.07c-3.08.48-4.05.48-6.88.48-57.17,0-87.39-66.45-87.39-192.15v-29.44c0-63.03,8.85-111.28,26.3-143.43,16.31-30.03,39.77-45.26,69.75-45.26,27.42,0,50.09,10.23,75.69,25.59.82.49,1.84.51,2.67.03.83-.47,1.34-1.35,1.34-2.3v-109.95c0-1.02-.58-1.95-1.5-2.39-24.31-11.66-51.78-17.57-81.66-17.57-61.22,0-112.48,26.35-148.25,76.21-37.28,51.97-56.99,129.22-56.99,223.4v20.78c0,100.13,19.32,177.27,57.44,229.26,33.73,46.02,81.55,70.34,138.28,70.34,41.94,0,73.57-10.02,111-26.19.97-.42,1.6-1.37,1.6-2.43v-322.07c0-1.46-1.18-2.65-2.65-2.65Z"></path> </g> </g> </g> <g> <path class="cls-3" d="m352.84,1256.18l-8.54-35.51h-69.99l-8.54,35.51h-57.02l67.26-227.73h66.58l67.26,227.73h-57.02Zm-43.36-179.25l-24.24,96.28h48.48l-24.24-96.28Z"></path> <path class="cls-3" d="m595.6,1256.18v-145.79l-46.43,145.79h-23.56l-45.75-145.79v145.79h-54.29v-227.73h73.41l38.58,124.62,38.92-124.62h72.73v227.73h-53.61Z"></path> <path class="cls-3" d="m685.39,1256.18v-227.73h137.25v47.46h-81.94v40.97h79.55v47.46h-79.55v44.39h81.94v47.46h-137.25Z"></path> <path class="cls-3" d="m958.88,1256.18l-30.05-78.53h-20.49v78.53h-55.31v-227.73h92.87c44.39,0,72.72,32.09,72.72,74.09,0,38.58-19.8,58.04-36.87,65.55l38.58,88.09h-61.46Zm-21.51-180.28h-29.02v54.29h29.02c14.68,0,25.27-10.58,25.27-26.97s-10.58-27.31-25.27-27.31Z"></path> <path class="cls-3" d="m1048.67,1256.18v-227.73h55.31v227.73h-55.31Z"></path> <path class="cls-3" d="m1130.61,1142.48c0-69.65,38.58-117.79,99.36-117.79,49.17,0,70.68,31.75,81.6,59.75l-45.41,19.46c-5.8-17.75-18.1-30.39-36.19-30.39-26.97,0-43.02,29.02-43.02,68.97s16.05,68.97,43.02,68.97c18.44,0,31.07-14.34,36.19-32.78l45.75,19.46c-10.58,28-32.44,62.14-81.94,62.14-60.78,0-99.36-48.48-99.36-117.79Z"></path> <path class="cls-3" d="m1457.02,1256.18l-8.54-35.51h-69.99l-8.54,35.51h-57.02l67.26-227.73h66.58l67.26,227.73h-57.02Zm-43.36-179.25l-24.24,96.28h48.48l-24.24-96.28Z"></path> <path class="cls-3" d="m1506.87,1113.12c10.93-5.46,24.58-20.14,28-32.44-1.37.68-4.44,1.37-7.17,1.37-14,0-25.27-10.93-25.27-26.97s13.32-30.05,29.7-30.05c17.41,0,33.12,14,33.12,37.9,0,26.97-14.68,50.87-37.56,67.26l-20.83-17.07Z"></path> <path class="cls-3" d="m1607.94,1188.23c13.32,14.34,33.46,24.24,55.31,24.24,16.39,0,26.29-8.54,26.29-19.8,0-13.66-13.32-20.14-32.44-27.31-29.36-10.58-68.63-23.22-68.63-71.36,0-36.53,28.34-69.31,79.89-69.31,28.68,0,54.29,9.22,73.07,25.95l-25.61,40.97c-14-12.97-32.09-18.78-48.14-18.78s-22.88,7.85-22.88,18.1c0,12.29,12.97,18.44,32.44,25.61,29.36,10.58,68.29,24.92,68.29,71.02,0,43.36-30.05,72.72-81.6,72.72-36.88,0-63.17-11.27-82.29-29.7l26.29-42.34Z"></path> <path class="cls-1" d="m1841.47,1256.18v-227.73h55.31v179.59h73.41v48.14h-128.72Z"></path> <path class="cls-1" d="m2120.41,1256.18l-8.54-35.51h-69.99l-8.54,35.51h-57.02l67.26-227.73h66.58l67.26,227.73h-57.02Zm-43.36-179.25l-24.24,96.28h48.48l-24.24-96.28Z"></path> <path class="cls-1" d="m2298.98,1256.18l-30.05-78.53h-20.49v78.53h-55.31v-227.73h92.87c44.39,0,72.72,32.09,72.72,74.09,0,38.58-19.8,58.04-36.87,65.55l38.58,88.09h-61.46Zm-21.51-180.28h-29.02v54.29h29.02c14.68,0,25.27-10.58,25.27-26.97s-10.58-27.31-25.27-27.31Z"></path> <path class="cls-1" d="m2479.6,1024.69c42,0,67.6,25.61,79.55,55.65l-45.07,20.49c-5.8-15.02-17.41-27.31-34.48-27.31-25.61,0-44.04,23.56-44.04,68.97s18.44,68.97,44.04,68.97c13.32,0,24.24-4.44,30.73-10.93v-25.61h-37.56v-47.12h89.11v94.58c-20.49,23.22-46.78,37.9-82.29,37.9-60.43,0-100.38-46.78-100.38-117.79s39.95-117.79,100.38-117.79Z"></path> <path class="cls-1" d="m2592.95,1256.18v-227.73h137.25v47.46h-81.94v40.97h79.55v47.46h-79.55v44.39h81.94v47.46h-137.25Z"></path> <path class="cls-1" d="m2772.2,1188.23c13.32,14.34,33.46,24.24,55.31,24.24,16.39,0,26.29-8.54,26.29-19.8,0-13.66-13.32-20.14-32.44-27.31-29.36-10.58-68.63-23.22-68.63-71.36,0-36.53,28.34-69.31,79.89-69.31,28.68,0,54.29,9.22,73.07,25.95l-25.61,40.97c-14-12.97-32.09-18.78-48.14-18.78s-22.88,7.85-22.88,18.1c0,12.29,12.97,18.44,32.44,25.61,29.36,10.58,68.29,24.92,68.29,71.02,0,43.36-30.05,72.72-81.6,72.72-36.88,0-63.17-11.27-82.29-29.7l26.29-42.34Z"></path> <path class="cls-1" d="m2969.55,1256.18v-179.59h-48.82v-48.14h152.62v48.14h-48.48v179.59h-55.31Z"></path> <path class="cls-3" d="m3168.94,1256.18v-227.73h55.31v227.73h-55.31Z"></path> <path class="cls-3" d="m3384.72,1256.18l-69.31-131.11v131.11h-54.97v-227.73h56.34l65.55,124.62v-124.62h54.63v227.73h-52.24Z"></path> <path class="cls-3" d="m3475.88,1201.21c6.83,5.8,15.71,10.24,25.95,10.24,15.71,0,26.29-9.56,26.29-26.63v-156.38h54.97v158.08c0,50.87-30.73,73.75-75.8,73.75-17.75,0-35.85-4.1-49.85-15.71l18.44-43.36Z"></path> <path class="cls-3" d="m3619.28,1028.44h55.65v147.16c0,22.88,10.93,36.19,32.78,36.19s32.44-13.32,32.44-36.19v-147.16h55.65v146.82c0,53.95-33.8,85.02-88.09,85.02s-88.43-31.07-88.43-85.02v-146.82Z"></path> <path class="cls-3" d="m3937.83,1256.18l-30.05-78.53h-20.49v78.53h-55.31v-227.73h92.87c44.39,0,72.72,32.09,72.72,74.09,0,38.58-19.8,58.04-36.87,65.55l38.58,88.09h-61.46Zm-21.51-180.28h-29.02v54.29h29.02c14.68,0,25.27-10.58,25.27-26.97s-10.58-27.31-25.27-27.31Z"></path> <path class="cls-3" d="m4071.33,1256.18v-92.53l-70.33-135.21h60.43l37.56,84.67,37.22-84.67h60.43l-69.99,135.21v92.53h-55.31Z"></path> <path class="cls-3" d="m4282.67,1256.18v-227.73h55.31v179.59h73.41v48.14h-128.72Z"></path> <path class="cls-3" d="m4561.62,1256.18l-8.54-35.51h-69.99l-8.54,35.51h-57.02l67.26-227.73h66.58l67.26,227.73h-57.02Zm-43.36-179.25l-24.24,96.28h48.48l-24.24-96.28Z"></path> <path class="cls-3" d="m4767.5,1256.18l-25.61-137.6-25.27,137.6h-57.02l-52.58-227.73h59.07l25.27,145.11,29.7-145.11h42.34l29.36,145.11,25.27-145.11h59.07l-52.58,227.73h-57.02Z"></path> <path class="cls-3" d="m4966.21,1256.18v-227.73h137.25v47.46h-81.94v40.97h79.55v47.46h-79.55v91.84h-55.31Z"></path> <path class="cls-3" d="m5131.8,1256.18v-227.73h55.31v227.73h-55.31Z"></path> <path class="cls-3" d="m5329.14,1256.18l-30.05-78.53h-20.49v78.53h-55.31v-227.73h92.87c44.39,0,72.72,32.09,72.72,74.09,0,38.58-19.8,58.04-36.87,65.55l38.58,88.09h-61.46Zm-21.51-180.28h-29.02v54.29h29.02c14.68,0,25.27-10.58,25.27-26.97s-10.58-27.31-25.27-27.31Z"></path> <path class="cls-3" d="m5588.97,1256.18v-145.79l-46.43,145.79h-23.56l-45.75-145.79v145.79h-54.29v-227.73h73.41l38.58,124.62,38.92-124.62h72.72v227.73h-53.6Z"></path> </g> </g></svg>